<?xml version="1.0" encoding="UTF-8" standalone="no"?><!DOCTYPE svg PUBLIC "-//W3C//DTD SVG 1.1//EN" "http://www.w3.org/Graphics/SVG/1.1/DTD/svg11.dtd"><svg width="100%" height="100%" viewBox="0 0 2250 2090" version="1.1" xmlns="http://www.w3.org/2000/svg" xmlns:xlink="http://www.w3.org/1999/xlink" xml:space="preserve" xmlns:serif="http://www.serif.com/" style="fill-rule:evenodd;clip-rule:evenodd;stroke-linejoin:round;stroke-miterlimit:2;"><rect id="Artboard1" x="-0" y="0" width="2250" height="2089.29" style="fill:none;"/><g id="Artboard11" serif:id="Artboard1"><g id="package"><path d="M2208.33,1971.43c0,42.477 -34.754,77.232 -77.232,77.232l-2008.04,-0c-42.477,-0 -77.232,-34.755 -77.232,-77.232l0,-1853.57c0,-42.477 34.755,-77.232 77.232,-77.232l2008.04,0c42.478,0 77.232,34.755 77.232,77.232l0,1853.57Z" style="fill:#edaf53;fill-rule:nonzero;"/><path d="M2208.33,1816.96c0,42.478 -34.754,77.232 -77.232,77.232l-2008.04,0c-42.477,0 -77.232,-34.754 -77.232,-77.232l0,-1699.11c0,-42.477 34.755,-77.232 77.232,-77.232l2008.04,0c42.478,0 77.232,34.755 77.232,77.232l0,1699.11Z" style="fill:#fdbe5d;fill-rule:nonzero;"/><path d="M895.387,40.625l463.393,0l-0,772.321l-77.232,-77.232l-77.233,77.232l-77.232,-77.232l-77.232,77.232l-77.232,-77.232l-77.232,77.232l-0,-772.321Z" style="fill:#ecf2f4;fill-rule:nonzero;"/><rect x="200.298" y="1430.8" width="540.625" height="308.929" style="fill:#ecf2f4;fill-rule:nonzero;"/><rect x="277.53" y="1508.04" width="386.161" height="154.464" style="fill:#d3d7d9;fill-rule:nonzero;"/><rect x="1667.71" y="1430.8" width="386.161" height="308.929" style="fill:#edaf53;fill-rule:nonzero;"/><rect x="1667.71" y="1044.64" width="386.161" height="308.929" style="fill:#edaf53;fill-rule:nonzero;"/></g></g></svg>